<svg xmlns="http://www.w3.org/2000/svg" width="34" height="56" viewBox="0 0 34 56">
  <defs>
    <style>
      .cls-1 {
        fill: #4d4d4d;
        fill-rule: evenodd;
      }
    </style>
  </defs>
  <path id="Forma_1" data-name="Forma 1" class="cls-1" d="M9.5,15.22V39.635L5.841,35A3.253,3.253,0,1,0,.736,39.033s6.646,8.054,9.391,11.894c1.854,2.593,4.135,5.012,7.516,5.012h7.8a8.625,8.625,0,0,0,8.615-8.616V31.974a3.25,3.25,0,0,0-6.017-1.708V29.209A3.25,3.25,0,0,0,22.022,27.5V26.769a3.25,3.25,0,0,0-6.017-1.708V15.221A3.253,3.253,0,1,0,9.5,15.22Zm1.13,45.826V66.69a1.831,1.831,0,0,0,1.831,1.832H32.226a1.831,1.831,0,0,0,1.831-1.832V61.046a1.831,1.831,0,0,0-1.831-1.831H12.461A1.831,1.831,0,0,0,10.63,61.046Z"/>
  <path id="Rounded_Rectangle_1" data-name="Rounded Rectangle 1" class="cls-1" d="M2.668,7.435a19.7,19.7,0,0,1,24.233,0,1.258,1.258,0,0,1,.341,1.874,1.527,1.527,0,0,1-1.925-.09,17.126,17.126,0,0,0-21.064,0,1.527,1.527,0,0,1-1.925.09,1.258,1.258,0,0,1,.341-1.874"/>
  <path id="Rounded_Rectangle_2" data-name="Rounded Rectangle 2" class="cls-1" d="M8.136,0.269a1.319,1.319,0,0,1,.486,1.806L4.637,8.947a1.327,1.327,0,0,1-2.3-1.322L6.321,0.753A1.331,1.331,0,0,1,8.136.269Z"/>
  <path id="Rounded_Rectangle_2_copy" data-name="Rounded Rectangle 2 copy" class="cls-1" d="M12.69,8.441A1.322,1.322,0,0,1,11.371,9.77l-7.953.024A1.325,1.325,0,1,1,3.4,7.144l7.953-.024A1.329,1.329,0,0,1,12.69,8.441Z"/>
</svg>
